<svg xmlns="http://www.w3.org/2000/svg" xmlns:xlink="http://www.w3.org/1999/xlink" version="1.1" x="0px" y="0px" viewBox="0 0 20 25" enable-background="new 0 0 20 20" xml:space="preserve"><path fill="#000000" d="M19,4h-4.2C14.9,3.7,15,3.4,15,3c0-1.7-1.3-3-3-3c-0.8,0-1.5,0.3-2,0.8C9.5,0.3,8.8,0,8,0C6.3,0,5,1.3,5,3  c0,0.4,0.1,0.7,0.2,1H1C0.4,4,0,4.4,0,5v4c0,0.6,0.4,1,1,1v9c0,0.6,0.4,1,1,1h16c0.6,0,1-0.4,1-1v-9c0.6,0,1-0.4,1-1V5  C20,4.4,19.6,4,19,4z M18,8h-7V6h7V8z M11,3c0-0.6,0.4-1,1-1c0.6,0,1,0.4,1,1s-0.4,1-1,1h-1V3z M7,3c0-0.6,0.4-1,1-1  c0.6,0,1,0.4,1,1v1H8C7.4,4,7,3.6,7,3z M2,6h7v2H2V6z M3,10h6v8H3V10z M17,18h-6v-8h6V18z"/><text x="0" y="35" fill="#000000" font-size="5px" font-weight="bold" font-family="'Helvetica Neue', Helvetica, Arial-Unicode, Arial, Sans-serif">Created by ProSymbols</text><text x="0" y="40" fill="#000000" font-size="5px" font-weight="bold" font-family="'Helvetica Neue', Helvetica, Arial-Unicode, Arial, Sans-serif">from the Noun Project</text></svg>